# This file uses centimeters as units for non-parametric coordinates.

mtllib CubicleWallPaint.mtl
g default
v -3.798644 1.097699 5.792108
v -3.753991 1.097699 5.792108
v -3.798644 9.313623 5.792108
v -3.753991 9.313623 5.792108
v -3.798644 9.313623 -5.792108
v -3.753991 9.313623 -5.792108
v -3.798644 1.097699 -5.792108
v -3.753991 1.097699 -5.792108
v -3.828483 0.799372 6.064250
v -3.724152 0.799372 6.064250
v -3.724152 9.611950 6.064250
v -3.828483 9.611950 6.064250
v -3.724152 9.611950 -6.064250
v -3.828483 9.611950 -6.064250
v -3.724152 0.799372 -6.064250
v -3.828483 0.799372 -6.064250
vt 0.041899 0.634928
vt 0.041899 0.015840
vt 0.480978 0.015840
vt 0.480978 0.634928
vt 0.025956 0.649472
vt 0.025956 0.001296
vt 0.496921 0.001296
vt 0.496921 0.649472
vt 0.519196 0.634928
vt 0.519196 0.015840
vt 0.958274 0.015840
vt 0.958274 0.634928
vt 0.503253 0.649472
vt 0.503253 0.001296
vt 0.974218 0.001296
vt 0.974218 0.649472
vt 0.001992 0.001296
vt 0.007568 0.001296
vt 0.007568 0.649472
vt 0.001992 0.649472
vt 0.014073 0.001296
vt 0.019649 0.001296
vt 0.019649 0.649472
vt 0.014073 0.649472
vt 0.980549 0.001296
vt 0.986125 0.001296
vt 0.986125 0.472261
vt 0.980549 0.472261
vt 0.992432 0.001296
vt 0.998008 0.001296
vt 0.998008 0.472261
vt 0.992432 0.472261
vn 0.000000 0.000000 1.000000
vn 0.000000 0.000000 1.000000
vn 0.000000 0.000000 1.000000
vn 0.000000 0.000000 1.000000
vn 0.000000 1.000000 0.000000
vn 0.000000 1.000000 0.000000
vn 0.000000 1.000000 0.000000
vn 0.000000 1.000000 0.000000
vn 0.000000 0.000000 -1.000000
vn 0.000000 0.000000 -1.000000
vn 0.000000 0.000000 -1.000000
vn 0.000000 0.000000 -1.000000
vn 0.000000 -1.000000 0.000000
vn 0.000000 -1.000000 0.000000
vn 0.000000 -1.000000 0.000000
vn 0.000000 -1.000000 0.000000
vn 0.999981 0.005002 -0.003734
vn 0.999981 0.005002 0.003734
vn 0.999981 -0.005002 0.003734
vn 0.999981 -0.005002 -0.003734
vn -0.999981 0.005002 0.003734
vn -0.999981 0.005002 -0.003734
vn -0.999981 -0.005002 -0.003734
vn -0.999981 -0.005002 0.003734
vn 0.997201 -0.062991 -0.040285
vn 0.997201 0.062991 -0.040285
vn -0.997201 0.062990 -0.040285
vn -0.997201 -0.062990 -0.040285
vn 0.997201 -0.062991 0.040285
vn -0.997201 -0.062990 0.040285
vn 0.997201 0.062991 0.040285
vn -0.997201 0.062990 0.040285
s off
g pCube3
usemtl initialShadingGroup
f 9/25/1 10/26/2 11/27/3 12/28/4
f 12/17/5 11/18/6 13/19/7 14/20/8
f 14/29/9 13/30/10 15/31/11 16/32/12
f 16/21/13 15/22/14 10/23/15 9/24/16
s 1
f 2/1/17 8/2/18 6/3/19 4/4/20
s 2
f 7/9/21 1/10/22 3/11/23 5/12/24
s 1
f 2/1/17 4/4/20 11/8/25 10/5/26
s 2
f 3/11/23 1/10/22 9/14/27 12/15/28
s 1
f 4/4/20 6/3/19 13/7/29 11/8/25
s 2
f 5/12/24 3/11/23 12/15/28 14/16/30
s 1
f 6/3/19 8/2/18 15/6/31 13/7/29
s 2
f 7/9/21 5/12/24 14/16/30 16/13/32
s 1
f 8/2/18 2/1/17 10/5/26 15/6/31
s 2
f 1/10/22 7/9/21 16/13/32 9/14/27
